<svg width="408" height="111" viewBox="0 0 408 111" fill="none" xmlns="http://www.w3.org/2000/svg">
<path d="M77.6814 66.481L59.8529 82.4494V95.3904H77.6814V66.481Z" fill="#023E67"/>
<path d="M101.877 44.4519L83.412 60.3702V95.3903H101.877V44.4519Z" fill="#023E67"/>
<path d="M82.7749 35.5381H101.877V38.7217L82.7749 55.9135V35.5381Z" fill="#FF4C00"/>
<path d="M6.36731 46.3625L11.4611 41.9054L17.8285 38.085L28.6529 35.5381H76.4077L64.9465 51.4563H30L28 52L27 52.5L24.5 54L23 55L22 56L21 57L19.7386 58.4604L18.5 61.5L17.8285 64.191V68.6481L20.3754 73.7419L24.1958 77.5623L29.9263 80.1092V96.0275L20.3754 93.4806L14.0081 90.2969L8.2775 85.8398L3.18365 80.746L0 70.5583V60.3706L2.54692 52.7298L6.36731 46.3625Z" fill="#023E67"/>
<path d="M34.3835 67.3748H54.7589V81.3828L39.4774 95.3909H34.3835V67.3748Z" fill="#FF4C00"/>
<path d="M58.5795 55.9133H77.6814V60.6326L58.5795 78.1989V55.9133Z" fill="#FF4C00"/>
<path d="M121.888 35.59L175.695 34.9443L165 49H144H127H125L124 49.5L123.5 50L122.5 51L121.888 51.6641L121.5 52.5L121.339 53.5V55.6063V56.8976L121.888 58.189L122.986 58.8347L124.974 59.4804H160.87L165.812 61.4174L170.204 64.6459L173.498 69.1657L174.596 76.2682L173.498 83.3708L171.302 87.8906L168.008 93.056L163.066 95.6388H105.417L114 83H157.027L158 82.5L158.5 82L159 81L159.5 80L159.772 79V77.5596V76.2682V74.3312L159.223 73.0398L158.612 72.5199L158 72L157.027 71.7484H137.261H118.045L113.103 68.52L109.26 64.6459L107.064 59.4804L105.966 53.6692L107.613 47.2124L110.907 41.4012L115.849 37.5271L121.888 35.59Z" fill="#023E67"/>
<path d="M115.885 22.8035L124.799 22.1667L123.526 30.4442L121.615 28.5341L99.9666 46.3625L86.5952 58.4604L73.8606 69.9215L61.126 81.3827L49.0281 91.5704L37.567 101.121L32.4731 105.578L26.1058 110.672L36.2935 101.121L47.7547 89.6602L71.3137 68.0113L117.795 24.7137L115.885 22.8035Z" fill="#82B440"/>
<path d="M54.7592 86.7449L49.6653 90.9336L44.4365 95.3907H54.7592V86.7449Z" fill="#023E67"/>
<path d="M209.68 96L221.92 31.2H238.24L250.32 96H237.12L234.96 82.32H225.44L223.2 96H209.68ZM226.72 73.76H233.6L230.16 48.48L226.72 73.76ZM270.383 96.8C266.329 96.8 262.943 95.8933 260.223 94.08C257.556 92.2667 255.369 89.3067 253.663 85.2L262.543 81.28C263.396 83.36 264.383 85.0133 265.503 86.24C266.676 87.4133 267.956 88 269.343 88C270.356 88 271.103 87.7867 271.583 87.36C272.116 86.9333 272.383 86.3467 272.383 85.6C272.383 84.3733 271.903 83.2533 270.943 82.24C270.036 81.2267 268.383 79.7333 265.983 77.76L262.622 74.96C260.169 72.88 258.223 70.88 256.783 68.96C255.396 66.9867 254.702 64.56 254.702 61.68C254.702 59.1733 255.343 56.96 256.623 55.04C257.956 53.12 259.716 51.6267 261.903 50.56C264.089 49.4933 266.436 48.96 268.943 48.96C272.729 48.96 275.903 50 278.463 52.08C281.023 54.16 282.809 57.0933 283.823 60.88L275.423 64.72C275.103 63.7067 274.649 62.6933 274.063 61.68C273.476 60.6667 272.756 59.8133 271.903 59.12C271.103 58.4267 270.223 58.08 269.263 58.08C268.409 58.08 267.716 58.32 267.183 58.8C266.703 59.28 266.463 59.92 266.463 60.72C266.463 61.7333 267.023 62.8267 268.143 64C269.316 65.1733 270.916 66.5867 272.943 68.24L276.223 71.12C277.556 72.24 278.863 73.44 280.143 74.72C281.423 76 282.463 77.4133 283.263 78.96C284.116 80.5067 284.543 82.2667 284.543 84.24C284.543 86.9067 283.876 89.2 282.543 91.12C281.209 92.9867 279.449 94.4 277.263 95.36C275.129 96.32 272.836 96.8 270.383 96.8ZM304.289 96.8C300.235 96.8 296.849 95.8933 294.129 94.08C291.462 92.2667 289.275 89.3067 287.569 85.2L296.449 81.28C297.302 83.36 298.289 85.0133 299.409 86.24C300.582 87.4133 301.862 88 303.249 88C304.262 88 305.009 87.7867 305.489 87.36C306.022 86.9333 306.289 86.3467 306.289 85.6C306.289 84.3733 305.809 83.2533 304.849 82.24C303.942 81.2267 302.289 79.7333 299.889 77.76L296.529 74.96C294.075 72.88 292.129 70.88 290.689 68.96C289.302 66.9867 288.609 64.56 288.609 61.68C288.609 59.1733 289.249 56.96 290.529 55.04C291.862 53.12 293.622 51.6267 295.809 50.56C297.995 49.4933 300.342 48.96 302.849 48.96C306.635 48.96 309.809 50 312.369 52.08C314.929 54.16 316.715 57.0933 317.729 60.88L309.329 64.72C309.009 63.7067 308.555 62.6933 307.969 61.68C307.382 60.6667 306.662 59.8133 305.809 59.12C305.009 58.4267 304.129 58.08 303.169 58.08C302.315 58.08 301.622 58.32 301.089 58.8C300.609 59.28 300.369 59.92 300.369 60.72C300.369 61.7333 300.929 62.8267 302.049 64C303.222 65.1733 304.822 66.5867 306.849 68.24L310.129 71.12C311.462 72.24 312.769 73.44 314.049 74.72C315.329 76 316.369 77.4133 317.169 78.96C318.022 80.5067 318.449 82.2667 318.449 84.24C318.449 86.9067 317.782 89.2 316.449 91.12C315.115 92.9867 313.355 94.4 311.169 95.36C309.035 96.32 306.742 96.8 304.289 96.8ZM324.035 96V49.76H337.075V96H324.035ZM323.955 41.92V32.88H337.075V41.92H323.955ZM359.367 96.8C355.314 96.8 351.927 95.8933 349.207 94.08C346.54 92.2667 344.354 89.3067 342.647 85.2L351.527 81.28C352.38 83.36 353.367 85.0133 354.487 86.24C355.66 87.4133 356.94 88 358.327 88C359.34 88 360.087 87.7867 360.567 87.36C361.1 86.9333 361.367 86.3467 361.367 85.6C361.367 84.3733 360.887 83.2533 359.927 82.24C359.02 81.2267 357.367 79.7333 354.967 77.76L351.607 74.96C349.154 72.88 347.207 70.88 345.767 68.96C344.38 66.9867 343.687 64.56 343.687 61.68C343.687 59.1733 344.327 56.96 345.607 55.04C346.94 53.12 348.7 51.6267 350.887 50.56C353.074 49.4933 355.42 48.96 357.927 48.96C361.714 48.96 364.887 50 367.447 52.08C370.007 54.16 371.794 57.0933 372.807 60.88L364.407 64.72C364.087 63.7067 363.634 62.6933 363.047 61.68C362.46 60.6667 361.74 59.8133 360.887 59.12C360.087 58.4267 359.207 58.08 358.247 58.08C357.394 58.08 356.7 58.32 356.167 58.8C355.687 59.28 355.447 59.92 355.447 60.72C355.447 61.7333 356.007 62.8267 357.127 64C358.3 65.1733 359.9 66.5867 361.927 68.24L365.207 71.12C366.54 72.24 367.847 73.44 369.127 74.72C370.407 76 371.447 77.4133 372.247 78.96C373.1 80.5067 373.527 82.2667 373.527 84.24C373.527 86.9067 372.86 89.2 371.527 91.12C370.194 92.9867 368.434 94.4 366.247 95.36C364.114 96.32 361.82 96.8 359.367 96.8ZM393.353 96.48C389.886 96.48 387.193 95.9733 385.273 94.96C383.406 93.9467 382.126 92.48 381.433 90.56C380.74 88.5867 380.393 86.2133 380.393 83.44V58.32H375.913V49.76H380.393V35.68H393.593V49.76H400.153V58.32H393.593V82.16C393.593 83.4933 393.966 84.4533 394.713 85.04C395.513 85.6267 396.5 85.92 397.673 85.92C398.366 85.92 399.006 85.8933 399.593 85.84C400.18 85.7333 400.713 85.6533 401.193 85.6V95.84C400.5 95.9467 399.406 96.08 397.913 96.24C396.42 96.4 394.9 96.48 393.353 96.48Z" fill="#FF4C00"/>
<rect x="185.278" y="25.3611" width="12.7778" height="76.6667" fill="#D9D9D9"/>
</svg>
