<svg width="68" height="68" viewBox="0 0 68 68" fill="none" xmlns="http://www.w3.org/2000/svg">
<rect width="68" height="68" rx="20" fill="#C3F088"/>
<path d="M25.875 32.75C26.2458 32.75 26.6084 32.86 26.9167 33.066C27.225 33.272 27.4654 33.5649 27.6073 33.9075C27.7492 34.2501 27.7863 34.6271 27.714 34.9908C27.6416 35.3545 27.4631 35.6886 27.2008 35.9508C26.9386 36.213 26.6045 36.3916 26.2408 36.464C25.8771 36.5363 25.5001 36.4992 25.1575 36.3573C24.8149 36.2154 24.522 35.975 24.316 35.6667C24.11 35.3584 24 34.9958 24 34.625C24 34.1277 24.1975 33.6508 24.5492 33.2992C24.9008 32.9475 25.3777 32.75 25.875 32.75ZM25.875 30.25C25.0097 30.25 24.1638 30.5066 23.4444 30.9873C22.7249 31.4681 22.1642 32.1513 21.833 32.9508C21.5019 33.7502 21.4153 34.6299 21.5841 35.4785C21.7529 36.3272 22.1696 37.1067 22.7814 37.7186C23.3933 38.3304 24.1728 38.7471 25.0215 38.9159C25.8701 39.0847 26.7498 38.9981 27.5492 38.667C28.3487 38.3358 29.032 37.7751 29.5127 37.0556C29.9934 36.3362 30.25 35.4903 30.25 34.625C30.25 33.4647 29.7891 32.3519 28.9686 31.5314C28.1481 30.7109 27.0353 30.25 25.875 30.25Z" fill="white"/>
<path d="M45.25 31.5001H35.25C34.587 31.5001 33.9511 31.7635 33.4822 32.2323C33.0134 32.7012 32.75 33.337 32.75 34.0001V41.5001H19V27.2501L34 19.1751L49.6625 27.6001L50.8375 25.4001L34.5875 16.6501C34.4066 16.5538 34.2049 16.5034 34 16.5034C33.7951 16.5034 33.5934 16.5538 33.4125 16.6501L17.1625 25.4001C16.9629 25.5064 16.7959 25.6648 16.6792 25.8585C16.5625 26.0522 16.5006 26.274 16.5 26.5001V51.5001H19V44.0001H49V51.5001H51.5V37.7501C51.5 36.0925 50.8415 34.5028 49.6694 33.3307C48.4973 32.1586 46.9076 31.5001 45.25 31.5001ZM35.25 41.5001V34.0001H45.25C46.2446 34.0001 47.1984 34.3952 47.9017 35.0984C48.6049 35.8017 49 36.7555 49 37.7501V41.5001H35.25Z" fill="white"/>
</svg>
