<?xml version="1.0" encoding="UTF-8"?>
<svg xmlns="http://www.w3.org/2000/svg" width="68" height="68" viewBox="0 0 68 68" fill="none">
  <rect x="68" y="68" width="68" height="68" rx="20" transform="rotate(-180 68 68)" fill="url(#paint0_linear_501_352)"></rect>
  <path d="M25.678 38.6841H23.6343C23.2689 38.6841 22.9727 38.9803 22.9727 39.3457C22.9727 39.7111 23.2689 40.0074 23.6343 40.0074H25.678C26.0434 40.0074 26.3396 39.7111 26.3396 39.3457C26.3396 38.9803 26.0434 38.6841 25.678 38.6841Z" fill="white"></path>
  <mask id="mask0_501_352" style="mask-type:alpha" maskUnits="userSpaceOnUse" x="4" y="27" width="50" height="25">
    <path d="M38.6988 32.2989C36.7486 31.2557 34.5262 28.8065 31.7142 28.1262L27.5415 27.3098L17.5634 27.8994L11.1683 31.7093L5.63497 33.7502L5 43.1387L8.22021 45.724L9.80764 47.8557L13.935 50.9398L19.7858 46.6311H37.0207L41.3294 50.9398L47.1802 50.2595L50.7179 46.8579L53.2125 44.5448C53.2125 42.3979 52.8587 37.7596 51.4436 36.3808C50.0285 35.002 47.5884 34.8085 46.5453 34.8841L42.9622 34.2038C42.1912 33.9165 40.2591 33.1334 38.6988 32.2989Z" fill="#D9D9D9" stroke="#63E3D7" stroke-width="0.3"></path>
  </mask>
  <g mask="url(#mask0_501_352)">
    <path d="M38.6469 35.0128C38.3607 34.8552 38.0782 34.6827 37.8075 34.4998L33.4312 31.5434C32.103 30.6461 30.5537 30.1719 28.9508 30.1719H20.9184C18.7862 30.1719 16.7801 31.0007 15.2694 32.5056C14.4929 33.2792 13.6083 33.9264 12.6402 34.4291C12.0676 34.7264 11.7119 35.3116 11.7119 35.9563C11.7119 36.9057 12.4842 37.678 13.4336 37.678H16.1721C16.5375 37.678 16.8338 37.3817 16.8338 37.0163C16.8338 36.6509 16.5375 36.3547 16.1721 36.3547H13.4336C13.2139 36.3547 13.0351 36.1759 13.0351 35.9562C13.0351 35.8073 13.1174 35.6722 13.2499 35.6034C14.3376 35.0387 15.3313 34.3117 16.2032 33.443C17.4641 32.1868 19.1386 31.4951 20.9183 31.4951H22.7166V36.3547H20.5185C20.1531 36.3547 19.8569 36.6509 19.8569 37.0163C19.8569 37.3817 20.1531 37.678 20.5185 37.678H38.6604C39.2043 37.678 39.6468 37.2355 39.6468 36.6916C39.6468 35.9951 39.2636 35.3518 38.6469 35.0128ZM24.0401 36.3548V31.4952H28.9509C30.2888 31.4952 31.582 31.891 32.6906 32.6399L37.0669 35.5963C37.3707 35.8016 37.6878 35.9954 38.0094 36.1723C38.0927 36.2181 38.1625 36.281 38.2149 36.3548H24.0401Z" fill="white" stroke="#63E3D7" stroke-width="0.3"></path>
    <path d="M51.9618 38.1283L51.7528 37.7814C50.9652 36.4744 49.6551 35.5541 48.1584 35.2563L46.4503 34.9166V26.2586H50.8708C51.781 26.2586 52.5213 25.5182 52.5213 24.6081V11.7226C52.5213 10.8124 51.7809 10.072 50.8708 10.072H37.9853C37.0751 10.072 36.3347 10.8125 36.3347 11.7226V16.6105C36.3347 16.9759 36.6309 17.2721 36.9964 17.2721C37.3618 17.2721 37.658 16.9759 37.658 16.6105V11.7226C37.658 11.5421 37.8049 11.3952 37.9854 11.3952H50.871C51.0515 11.3952 51.1983 11.5421 51.1983 11.7226V24.6081C51.1983 24.7887 51.0515 24.9355 50.871 24.9355H37.9853C37.8048 24.9355 37.6579 24.7887 37.6579 24.6081V20.9118C37.6579 20.5464 37.3618 20.2502 36.9963 20.2502C36.6308 20.2502 36.3346 20.5464 36.3346 20.9118V24.6081C36.3346 25.5183 37.0751 26.2587 37.9852 26.2587H42.9979V34.2302L42.1199 34.0556C40.908 33.8146 39.7265 33.0832 38.9431 32.5539L34.5669 29.5976C32.9019 28.4729 30.9599 27.8783 28.9507 27.8783H20.9183C18.2455 27.8783 15.7307 28.9172 13.8373 30.8036C12.6392 31.9972 11.1311 32.8113 9.4759 33.158L8.52598 33.357C7.1138 33.6527 6.08887 34.9146 6.08887 36.3575V42.7652C6.08887 43.5296 6.54015 44.2241 7.23871 44.5345L9.87402 45.7058C10.0334 46.5392 10.4349 47.335 11.0787 47.9788C11.9344 48.8345 13.0584 49.2624 14.1825 49.2624C15.3066 49.2624 16.4305 48.8345 17.2862 47.9788C17.8366 47.4285 18.2088 46.7669 18.4052 46.066H40.3785C40.5749 46.7669 40.9473 47.4285 41.4976 47.9788C42.3267 48.8078 43.4288 49.2645 44.6013 49.2645C45.7738 49.2645 46.8761 48.8079 47.7052 47.9788C48.2555 47.4285 48.6278 46.7669 48.8242 46.066H50.0793C51.4321 46.066 52.5327 44.9654 52.5327 43.6127V40.1809C52.5325 39.4576 52.3351 38.7479 51.9618 38.1283ZM44.3212 26.2586H45.1271V34.6535L44.3212 34.4932V26.2586ZM16.3505 47.0432C15.7714 47.6223 15.0014 47.9413 14.1824 47.9413C13.3634 47.9413 12.5934 47.6223 12.0143 47.0432C11.0854 46.1143 10.8787 44.7328 11.3934 43.602C11.3976 43.593 11.4016 43.5838 11.4058 43.5747C11.4214 43.5412 11.438 43.508 11.455 43.475C11.463 43.4594 11.471 43.4439 11.4793 43.4284C11.4947 43.3998 11.5106 43.3713 11.5269 43.343C11.5382 43.3235 11.5497 43.3042 11.5614 43.2849C11.5766 43.26 11.5919 43.2351 11.6079 43.2105C11.6223 43.1883 11.6372 43.1664 11.6522 43.1445C11.6671 43.1228 11.6819 43.1011 11.6973 43.0797C11.715 43.0553 11.7334 43.0314 11.7519 43.0074C11.7663 42.9888 11.7804 42.9699 11.7953 42.9515C11.817 42.9245 11.8398 42.8982 11.8625 42.8719C11.8755 42.857 11.8879 42.8416 11.9011 42.8268C11.9349 42.7894 11.9696 42.7526 12.0053 42.7166C12.0084 42.7135 12.0112 42.7103 12.0143 42.7072C12.0211 42.7004 12.0283 42.694 12.0352 42.6873C12.0655 42.6576 12.096 42.6282 12.1271 42.6C12.1352 42.5926 12.1437 42.5858 12.1518 42.5786C12.1829 42.5511 12.2141 42.5238 12.246 42.4977C12.249 42.4953 12.2522 42.493 12.2552 42.4906C13.3766 41.583 14.9941 41.5841 16.1142 42.4942L16.1181 42.4973C16.1523 42.5251 16.1858 42.5543 16.2191 42.5839C16.2251 42.5892 16.2313 42.5942 16.2372 42.5995C16.2756 42.6343 16.3134 42.6701 16.3504 42.7071C16.3903 42.747 16.4287 42.7881 16.4661 42.8297C16.4825 42.8481 16.498 42.8668 16.5139 42.8854C16.5333 42.9081 16.5528 42.9309 16.5715 42.954C16.5925 42.98 16.6127 43.0065 16.6327 43.033C16.6439 43.0478 16.6551 43.0627 16.6659 43.0777C16.6902 43.111 16.7138 43.1448 16.7365 43.179C16.7404 43.1848 16.7442 43.1907 16.748 43.1965C17.5263 44.3852 17.3939 45.9997 16.3505 47.0432ZM46.7693 47.0432C46.1901 47.6223 45.4202 47.9413 44.6012 47.9413C43.7821 47.9413 43.0123 47.6223 42.4332 47.0432C41.3896 45.9997 41.2571 44.385 42.0355 43.1963C42.0392 43.1906 42.0429 43.1849 42.0468 43.1792C42.0695 43.145 42.0932 43.1111 42.1175 43.0776C42.1283 43.0627 42.1394 43.048 42.1505 43.0334C42.1706 43.0067 42.1909 42.9801 42.212 42.9539C42.2306 42.931 42.2499 42.9085 42.2692 42.886C42.2852 42.8672 42.3009 42.8482 42.3175 42.8297C42.3549 42.7881 42.3934 42.7471 42.4333 42.7072C43.0124 42.1281 43.7822 41.8092 44.6012 41.8092C45.4203 41.8092 46.1902 42.1281 46.7693 42.7072C46.8092 42.7471 46.8477 42.7882 46.8851 42.8298C46.9016 42.8482 46.9171 42.867 46.933 42.8857C46.9524 42.9083 46.9719 42.931 46.9905 42.954C47.0115 42.9801 47.0317 43.0066 47.0518 43.0332C47.0629 43.048 47.0741 43.0628 47.085 43.0777C47.1092 43.1112 47.1329 43.1449 47.1556 43.1791C47.1595 43.1849 47.1633 43.1907 47.1671 43.1965C47.9452 44.3852 47.8127 45.9998 46.7693 47.0432ZM51.2095 43.6127C51.2095 44.2358 50.7023 44.7428 50.0791 44.7428H48.9899C48.964 43.7832 48.6252 42.8677 48.0157 42.117C48.0116 42.112 48.0077 42.1067 48.0035 42.1016C47.9658 42.0556 47.9267 42.0105 47.8869 41.9657C47.8768 41.9543 47.8672 41.9425 47.8569 41.9311C47.8148 41.8847 47.7713 41.8393 47.727 41.7945C47.7195 41.7868 47.7126 41.7789 47.705 41.7713C47.135 41.2014 46.4359 40.8074 45.6736 40.617C45.3271 40.5303 44.9676 40.4858 44.6012 40.4858C44.3081 40.4858 44.0193 40.5144 43.7381 40.5701C42.8946 40.7373 42.1192 41.1496 41.4974 41.7713C41.49 41.7788 41.4832 41.7866 41.4758 41.7941C41.4314 41.8392 41.3877 41.8847 41.3455 41.9313C41.3355 41.9422 41.3262 41.9537 41.3164 41.9647C41.2764 42.0099 41.2368 42.0554 41.1988 42.1019C41.195 42.1065 41.1914 42.1113 41.1876 42.116C40.5776 42.8667 40.2385 43.7828 40.2125 44.7429H18.571C18.545 43.7817 18.2052 42.8645 17.5936 42.1131C17.5908 42.1096 17.5881 42.1061 17.5853 42.1025C17.5454 42.0537 17.5039 42.0059 17.4617 41.9586C17.4539 41.9499 17.4467 41.9409 17.4388 41.9322C17.3894 41.8776 17.3386 41.8239 17.286 41.7714C17.0721 41.5575 16.8414 41.3703 16.5982 41.2098C15.8683 40.7285 15.0254 40.4879 14.1824 40.4879C13.0584 40.4879 11.9343 40.9158 11.0787 41.7714C11.0298 41.8203 10.9825 41.8705 10.9362 41.9213C10.9225 41.9363 10.9094 41.9517 10.8959 41.9668C10.8632 42.0037 10.8311 42.041 10.7998 42.0788C10.7859 42.0955 10.7721 42.1124 10.7584 42.1295C10.7261 42.1698 10.6945 42.2106 10.6637 42.2519C10.654 42.2648 10.6442 42.2774 10.6348 42.2904C10.5519 42.4039 10.475 42.5209 10.4039 42.6409C10.4019 42.6442 10.4 42.6477 10.398 42.651C10.3632 42.7101 10.3299 42.77 10.2981 42.8305C10.2972 42.8322 10.2963 42.834 10.2953 42.8357C10.0646 43.2747 9.90949 43.7495 9.83837 44.2419L7.77626 43.3254C7.55511 43.2271 7.41224 43.0072 7.41224 42.7652V36.3575C7.41224 35.5374 7.99487 34.8201 8.79756 34.6519L9.74748 34.453C11.6542 34.0536 13.3915 33.1158 14.7716 31.7409C16.4152 30.1033 18.5983 29.2014 20.9185 29.2014H28.9509C30.6952 29.2014 32.381 29.7176 33.8264 30.6939L38.2026 33.6502C39.0808 34.2436 40.4156 35.0656 41.862 35.3533L47.9006 36.5541C49.0328 36.7794 50.0238 37.4756 50.6197 38.4643L50.8287 38.8112C51.0779 39.2246 51.2095 39.6982 51.2095 40.1809V43.6127Z" fill="white" stroke="#63E3D7" stroke-width="0.3"></path>
  </g>
  <path d="M15.601 43.4553C15.2215 43.0758 14.7171 42.8669 14.1806 42.8669C13.644 42.8669 13.1396 43.0759 12.7602 43.4553C12.3809 43.8346 12.1719 44.3391 12.1719 44.8756C12.1719 45.4122 12.3809 45.9166 12.7602 46.296C13.1396 46.6753 13.644 46.8843 14.1807 46.8843C14.7172 46.8843 15.2216 46.6754 15.601 46.296C16.3842 45.5128 16.3842 44.2385 15.601 43.4553ZM14.6652 45.3603C14.5358 45.4897 14.3636 45.561 14.1806 45.561C13.9974 45.561 13.8253 45.4897 13.6959 45.3602C13.5665 45.2308 13.4951 45.0587 13.4951 44.8755C13.4951 44.6924 13.5664 44.5203 13.6959 44.3909C13.8253 44.2614 13.9974 44.19 14.1806 44.19C14.3636 44.19 14.5358 44.2613 14.6652 44.3909C14.9325 44.6582 14.9325 45.0931 14.6652 45.3603Z" fill="white"></path>
  <path d="M46.02 43.4556C45.6406 43.0762 45.1362 42.8672 44.5996 42.8672C44.063 42.8672 43.5587 43.0761 43.1791 43.4555C42.396 44.2387 42.396 45.513 43.1791 46.2962C43.5586 46.6757 44.063 46.8846 44.5996 46.8846C45.1362 46.8846 45.6405 46.6757 46.0199 46.2963C46.3993 45.917 46.6082 45.4125 46.6082 44.876C46.6082 44.3394 46.3993 43.835 46.02 43.4556ZM45.0842 45.3606C44.9548 45.4901 44.7827 45.5614 44.5996 45.5614C44.4165 45.5614 44.2443 45.4901 44.1149 45.3606C43.8477 45.0934 43.8477 44.6585 44.1149 44.3913C44.2443 44.2619 44.4165 44.1905 44.5996 44.1905C44.7827 44.1905 44.9548 44.2618 45.0843 44.3913C45.2138 44.5207 45.2851 44.6928 45.2851 44.876C45.2851 45.0589 45.2138 45.2311 45.0842 45.3606Z" fill="white"></path>
  <mask id="mask1_501_352" style="mask-type:alpha" maskUnits="userSpaceOnUse" x="35" y="18" width="27" height="22">
    <path d="M41.3183 34.6C39.2863 34.2008 37.0851 32.5892 36.2385 31.8333L35.1953 22.8076L36.2385 18.3628L50.0718 18L52.7024 23.5787L59.0067 21.5831L62.0002 26.6628L56.7843 39.2262L50.8882 37.8202C50.5556 37.4271 49.6273 36.5321 48.5751 36.0967C47.2598 35.5524 43.8581 35.0989 41.3183 34.6Z" fill="#D9D9D9"></path>
  </mask>
  <g mask="url(#mask1_501_352)">
    <path d="M43.2956 29.8289C43.171 29.8289 43.0528 29.8827 42.9707 29.9766C42.765 30.1718 41.1143 32.3039 40.7872 33.0743C39.5109 35.1145 41.0311 37.5795 43.2956 37.5876C44.9085 37.5876 46.2467 36.2757 46.2783 34.6755C46.3511 33.1572 43.9003 30.2978 43.6205 29.9766C43.5388 29.8827 43.4202 29.8289 43.2956 29.8289ZM43.2956 36.7255C42.1253 36.7255 41.1731 35.7731 41.1731 34.6023C41.1454 34.0411 41.9626 32.6952 42.4081 32.1002C42.7368 31.6336 43.0654 31.2154 43.2973 30.9302C44.2462 32.0889 45.2984 33.8743 45.2601 34.6755C45.2373 35.8219 44.4427 36.7255 43.2956 36.7255Z" fill="white"></path>
    <path d="M48.7772 18.8142H37.7823C36.8311 18.8142 36.0577 19.5889 36.0577 20.5411V39.9689C35.5823 39.9689 35.1953 40.3561 35.1953 40.8323V42.1275C35.1953 42.6037 35.5823 42.991 36.0577 42.991H50.5018C50.9772 42.991 51.3642 42.6037 51.3642 42.1275V40.8323C51.3642 40.3561 50.9772 39.9689 50.5018 39.9689V30.3629H52.5499V35.8675C52.5208 37.9482 55.1543 39.0421 56.5955 37.5475C57.0452 37.103 57.2928 36.5062 57.2928 35.8675V31.3343C57.8433 31.4015 58.3691 31.0587 58.3707 30.4708C58.3707 30.4709 58.3707 28.7439 58.3707 28.7439C58.3707 27.9487 57.934 27.2601 57.2928 26.8856V24.8538L59.0667 23.4724C59.5036 23.124 58.9955 22.4467 58.537 22.7906C58.537 22.7906 56.5967 24.3017 56.5967 24.3017C56.4919 24.3835 56.4304 24.5093 56.4304 24.6425V26.6071C55.8922 26.4804 55.3466 26.8857 55.3525 27.4488C55.3525 27.4488 55.3525 30.4709 55.3525 30.4709C55.3543 31.0588 55.8788 31.4012 56.4304 31.3343C56.4304 31.3343 56.4304 35.8675 56.4304 35.8675C56.3823 37.8558 53.4656 37.8641 53.4122 35.8674V28.0489C53.4122 26.3506 52.141 24.947 50.5018 24.7341V20.5411C50.5018 19.5889 49.7283 18.8142 48.7772 18.8142ZM56.2148 27.4488C56.9111 27.4482 57.5112 28.0231 57.5083 28.744L57.5088 30.4709H56.2148L56.2148 27.4488ZM52.5499 28.0489V29.4995H50.0707C49.8204 29.4959 49.5949 29.7345 49.6504 29.9852C49.6247 30.0207 49.646 39.9223 49.6395 39.9689C49.6395 39.9689 38.6447 39.9689 38.6447 39.9689C38.0842 39.9727 38.074 40.8249 38.6447 40.8323C38.6447 40.8323 50.5018 40.8323 50.5018 40.8323V42.1275H36.0577V40.8323H36.4888C36.7271 40.8323 36.92 40.639 36.92 40.4006V20.5411C36.92 20.0649 37.3069 19.6777 37.7823 19.6777H48.7772C49.2525 19.6777 49.6395 20.0649 49.6395 20.5411V27.8805C49.6479 28.4495 50.4937 28.4461 50.5018 27.8805V25.6066C51.6638 25.8118 52.5499 26.8277 52.5499 28.0489Z" fill="white"></path>
    <path d="M47.1483 21.3772H46.2855C45.7169 21.388 45.7197 22.2383 46.2856 22.2481H47.1483V26.6025H39.3833V22.2481H44.1286C44.6952 22.2393 44.6957 21.3863 44.1286 21.3772H39.3833C38.9077 21.3772 38.5205 21.7678 38.5205 22.2481V26.6025C38.5205 27.0828 38.9077 27.4733 39.3833 27.4733H47.1483C47.6239 27.4733 48.0111 27.0828 48.0111 26.6025V22.2481C48.0111 21.7678 47.6239 21.3772 47.1483 21.3772Z" fill="white"></path>
    <path d="M42.5742 34.1845L42.5156 33.7307L43.9354 34.0089L43.9939 34.4626L42.5742 34.1845Z" stroke="#6AECDC" stroke-width="0.5"></path>
  </g>
  <path d="M45.2056 35.0921L41.0195 34.2041" stroke="white" stroke-width="0.7"></path>
  <defs>
    <linearGradient id="paint0_linear_501_352" x1="102" y1="68" x2="102" y2="136" gradientUnits="userSpaceOnUse">
      <stop stop-color="#5BDAD2"></stop>
      <stop offset="1" stop-color="#7AFFE7"></stop>
    </linearGradient>
  </defs>
</svg>
