<?xml version="1.0" encoding="UTF-8"?>
<svg xmlns="http://www.w3.org/2000/svg" width="68" height="68" viewBox="0 0 68 68" fill="none">
  <rect x="68" y="68" width="68" height="68" rx="20" transform="rotate(-180 68 68)" fill="url(#paint0_linear_524_253)"></rect>
  <path d="M20.2718 34.1699H20.2886C20.8485 34.1701 21.3789 33.9189 21.7336 33.4856L23.3857 31.4653V35.0295V35.0382C23.3577 35.7641 23.0398 39.2594 19.6653 39.2594C19.3218 39.2594 19.0433 39.5379 19.0433 39.8814C19.0433 40.2249 19.3218 40.5034 19.6653 40.5034C23.0243 40.5034 23.3552 44.0055 23.3869 44.7264V44.7333V50.456C23.3869 51.4866 24.2224 52.3221 25.253 52.3221H49.2001C50.3898 52.3274 51.4517 51.577 51.844 50.4538C52.2362 49.3307 51.8724 48.0823 50.9381 47.3458C51.6079 46.822 51.9994 46.019 51.9994 45.1687C51.9994 44.3184 51.6079 43.5154 50.9381 42.9916C51.8724 42.255 52.2362 41.0067 51.844 39.8836C51.4517 38.7604 50.3898 38.01 49.2001 38.0153H43.2908V31.4671L44.9473 33.4912C45.3024 33.9222 45.8319 34.1714 46.3904 34.1705H46.4072C46.9667 34.1675 47.4949 33.9116 47.8441 33.4744L51.2653 29.2023C51.7958 28.5423 51.8154 27.608 51.3132 26.9263L46.0128 19.6945C45.31 18.741 44.3918 17.9672 43.3331 17.4359L39.377 15.4547C39.3228 15.428 39.2662 15.4087 39.2109 15.3844H39.2046C38.6468 15.134 38.0427 15.0031 37.4312 15H29.2452C28.6353 15.0027 28.0326 15.1324 27.4756 15.3807L27.4644 15.3857C27.4071 15.4105 27.3499 15.4304 27.2933 15.4578L23.344 17.4359C22.2848 17.9672 21.3663 18.7416 20.6637 19.6957L15.3652 26.9213C14.8619 27.6025 14.8805 28.5373 15.4106 29.1979L18.8318 33.4701C19.181 33.9094 19.7105 34.1668 20.2718 34.1699ZM22.1341 39.8814C22.9676 39.372 23.6238 38.6181 24.0133 37.7223C24.4031 38.6181 25.0595 39.372 25.8931 39.8814C25.0595 40.3908 24.4031 41.1447 24.0133 42.0405C23.6238 41.1447 22.9676 40.3908 22.1341 39.8814ZM24.6298 50.456V49.2119H31.5039C31.4873 49.3149 31.4767 49.4187 31.4721 49.5229C31.4718 50.0769 31.6369 50.6184 31.9461 51.078H25.2518C24.9082 51.078 24.6298 50.7995 24.6298 50.456ZM50.7552 49.5229C50.7552 50.3818 50.059 51.078 49.2001 51.078H34.2713C33.4124 51.078 32.7162 50.3818 32.7162 49.5229C32.7162 48.6641 33.4124 47.9678 34.2713 47.9678H49.2001C50.059 47.9678 50.7552 48.6641 50.7552 49.5229ZM50.7552 45.1687C50.7552 46.0275 50.059 46.7238 49.2001 46.7238H34.2713C33.4124 46.7238 32.7162 46.0275 32.7162 45.1687C32.7162 44.3098 33.4124 43.6136 34.2713 43.6136H49.2001C50.059 43.6136 50.7552 44.3098 50.7552 45.1687ZM50.7552 40.8144C50.7552 41.6733 50.059 42.3695 49.2001 42.3695H34.2713C33.4124 42.3695 32.7162 41.6733 32.7162 40.8144C32.7162 39.9556 33.4124 39.2594 34.2713 39.2594H49.2001C50.059 39.2594 50.7552 39.9556 50.7552 40.8144ZM50.2949 28.4204L46.8737 32.6944C46.7567 32.8398 46.5807 32.9249 46.3941 32.9264C46.207 32.923 46.0299 32.8413 45.9058 32.7012L45.4182 32.1047L49.5926 26.6799L50.3117 27.6609C50.4793 27.8885 50.4724 28.2004 50.2949 28.4204ZM33.3382 20.5983C36.2201 20.5983 38.684 19.0034 39.3639 16.8394L40.4879 17.4023C39.5542 20.0018 36.635 21.8424 33.3382 21.8424C30.0415 21.8424 27.1222 20.0018 26.1886 17.4023L27.3132 16.8394C27.9925 19.0034 30.4564 20.5983 33.3382 20.5983ZM37.4312 16.2441C37.6947 16.2451 37.9571 16.2796 38.2119 16.3467C37.7628 18.066 35.7343 19.3542 33.3382 19.3542C30.9422 19.3542 28.9137 18.066 28.4646 16.3467C28.7194 16.2797 28.9817 16.2452 29.2452 16.2441H37.4312ZM21.6664 20.4322C22.2518 19.6358 23.0175 18.9893 23.9007 18.5456L25.072 17.959C26.234 20.9715 29.578 23.0865 33.3382 23.0865C37.0984 23.0865 40.4425 20.9715 41.6045 17.9615L42.7764 18.5487C43.6588 18.9914 44.4242 19.6363 45.0101 20.431L48.8269 25.6368L44.6095 31.1175L44.2549 30.6821C43.9228 30.2747 43.3704 30.1201 42.875 30.2958C42.3795 30.4715 42.048 30.9396 42.0467 31.4653V38.0153H34.2713C33.0816 38.01 32.0197 38.7604 31.6275 39.8836C31.2352 41.0067 31.599 42.255 32.5333 42.9916C31.8635 43.5154 31.472 44.3184 31.472 45.1687C31.472 46.019 31.8635 46.822 32.5333 47.3458C32.3069 47.5218 32.1088 47.7316 31.9461 47.9678H24.6298V44.8863C24.6298 44.8763 24.6354 44.8676 24.6354 44.8577C24.6354 44.6798 24.6776 40.5034 28.362 40.5034C28.7055 40.5034 28.984 40.2249 28.984 39.8814C28.984 39.5379 28.7055 39.2594 28.362 39.2594C24.6957 39.2594 24.636 35.0818 24.6354 34.9051C24.6354 34.8952 24.6304 34.8865 24.6298 34.8765V31.4653C24.6276 30.9411 24.2971 30.4745 23.8033 30.2985C23.3095 30.1225 22.7584 30.2749 22.4253 30.6796L22.0682 31.1151L17.8496 25.6368L21.6664 20.4322ZM16.3816 28.4198C16.2042 28.199 16.1983 27.8863 16.3673 27.659L17.0851 26.6799L21.2589 32.1041L20.7725 32.6988C20.6469 32.8378 20.4702 32.9199 20.283 32.9264C20.0961 32.9255 19.9198 32.8399 19.8034 32.6938L16.3816 28.4198Z" fill="white"></path>
  <path d="M26.4956 31.7951C30.1618 31.7951 30.2216 35.9726 30.2222 36.1493C30.2222 36.4928 30.5007 36.7713 30.8442 36.7713C31.1878 36.7713 31.4662 36.4928 31.4662 36.1493C31.4662 35.9714 31.5085 31.7951 35.1922 31.7951C35.5358 31.7951 35.8143 31.5166 35.8143 31.173C35.8143 30.8295 35.5358 30.551 35.1922 30.551C31.526 30.551 31.4669 26.3734 31.4662 26.1967C31.4662 25.8532 31.1878 25.5747 30.8442 25.5747C30.5007 25.5747 30.2222 25.8532 30.2222 26.1967C30.2222 26.3746 30.1799 30.551 26.4956 30.551C26.152 30.551 25.8735 30.8295 25.8735 31.173C25.8735 31.5166 26.152 31.7951 26.4956 31.7951ZM30.8442 29.0139C31.2338 29.9097 31.8899 30.6636 32.7234 31.173C31.8899 31.6824 31.2338 32.4363 30.8442 33.3321C30.4544 32.4363 29.798 31.6824 28.9644 31.173C29.798 30.6636 30.4544 29.9097 30.8442 29.0139Z" fill="white"></path>
  <defs>
    <linearGradient id="paint0_linear_524_253" x1="102" y1="68" x2="102" y2="136" gradientUnits="userSpaceOnUse">
      <stop stop-color="#98F2B3"></stop>
      <stop offset="1" stop-color="#A2EFB9"></stop>
    </linearGradient>
  </defs>
</svg>
