<?xml version="1.0" encoding="UTF-8"?>
<svg xmlns="http://www.w3.org/2000/svg" width="68" height="68" viewBox="0 0 68 68" fill="none">
  <rect x="68" y="68" width="68" height="68" rx="20" transform="rotate(-180 68 68)" fill="url(#paint0_linear_142_761)"></rect>
  <g clip-path="url(#clip0_142_761)">
    <path d="M34 23.4609C28.1887 23.4609 23.4609 28.1887 23.4609 34C23.4609 39.8113 28.1887 44.5391 34 44.5391C39.8113 44.5391 44.5391 39.8113 44.5391 34C44.5391 28.1887 39.8113 23.4609 34 23.4609ZM34 43.0547C29.0072 43.0547 24.9453 38.9928 24.9453 34C24.9453 29.0072 29.0072 24.9453 34 24.9453C38.9928 24.9453 43.0547 29.0072 43.0547 34C43.0547 38.9928 38.9928 43.0547 34 43.0547Z" fill="white"></path>
    <path d="M52.606 15.0867C52.3635 14.958 52.0697 14.9735 51.8423 15.1271C48.1987 17.589 46.0234 21.6841 46.0234 26.0815V35.7116C46.0234 36.7445 46.4257 37.7155 47.156 38.4459L48.5469 39.8368V50.7734C48.5469 52.0012 49.5457 53 50.7734 53C52.0012 53 53 52.0012 53 50.7734V15.7422C53 15.4677 52.8484 15.2155 52.606 15.0867ZM51.5156 50.7734C51.5156 51.1827 51.1827 51.5156 50.7734 51.5156C50.3642 51.5156 50.0312 51.1827 50.0312 50.7734V39.5293C50.0312 39.3325 49.953 39.1437 49.8139 39.0045L48.2056 37.3963C47.7556 36.9463 47.5078 36.348 47.5078 35.7116V26.0815C47.5078 22.6689 48.9834 19.4617 51.5156 17.2486V50.7734Z" fill="white"></path>
    <path d="M32.2976 28.1139C32.1367 27.737 31.7004 27.5619 31.3235 27.7227C28.8051 28.7978 27.1777 31.2618 27.1777 34C27.1777 34.4098 27.51 34.7422 27.9199 34.7422C28.3298 34.7422 28.6621 34.4098 28.6621 34C28.6621 31.8574 29.9356 29.9292 31.9064 29.088C32.2833 28.9271 32.4585 28.4909 32.2976 28.1139Z" fill="white"></path>
    <path d="M34.0003 27.1775L33.9628 27.1776C33.5529 27.1803 33.2229 27.5148 33.2256 27.9247C33.2283 28.3329 33.5601 28.6619 33.9677 28.6619C33.9693 28.6619 33.9711 28.6619 33.9728 28.6619L34.0003 28.6619C34.4102 28.6619 34.7425 28.3296 34.7425 27.9197C34.7425 27.5098 34.4102 27.1775 34.0003 27.1775Z" fill="white"></path>
    <path d="M44.2882 24.2387C42.9769 22.8571 41.4312 21.7699 39.6941 21.0075C37.8954 20.2181 35.9795 19.8179 33.9998 19.8179C31.7376 19.8179 29.5751 20.3349 27.5726 21.3546C27.2073 21.5406 27.062 21.9875 27.2479 22.3528C27.434 22.718 27.8809 22.8633 28.2462 22.6774C30.0381 21.7649 31.9739 21.3022 33.9998 21.3022C37.5174 21.3022 40.7889 22.7079 43.2115 25.2606C43.3574 25.4143 43.5535 25.4918 43.75 25.4918C43.9334 25.4918 44.1172 25.4242 44.2607 25.2879C44.5581 25.0058 44.5703 24.536 44.2882 24.2387Z" fill="white"></path>
    <path d="M45.0088 41.7469C44.6872 41.4927 44.2205 41.5473 43.9663 41.8688C41.5398 44.9377 37.9072 46.6978 33.9998 46.6978C31.5543 46.6978 29.1803 46.0013 27.1344 44.6836C26.7898 44.4616 26.3304 44.5612 26.1085 44.9057C25.8866 45.2504 25.986 45.7096 26.3306 45.9315C28.6167 47.4039 31.2687 48.1821 33.9998 48.1821C38.3639 48.1821 42.4209 46.2165 45.1306 42.7893C45.3848 42.4679 45.3303 42.0011 45.0088 41.7469Z" fill="white"></path>
    <path d="M25.0906 43.0491L25.0797 43.0365C25.0758 43.0317 25.0719 43.0268 25.0678 43.022C24.8038 42.7084 24.3356 42.6683 24.022 42.9322C23.7085 43.1963 23.6682 43.6644 23.9323 43.978L23.9395 43.9866L23.9399 43.9863C23.9477 43.9962 23.9559 44.0062 23.9644 44.016C24.1112 44.187 24.3188 44.2747 24.5278 44.2747C24.699 44.2747 24.8709 44.2158 25.0109 44.0957C25.3219 43.8286 25.3576 43.3601 25.0906 43.0491Z" fill="white"></path>
    <path d="M24.2031 15C23.7932 15 23.4609 15.3323 23.4609 15.7422V23.7578H22.1244C22.1245 23.7537 22.125 23.7496 22.125 23.7454V15.7422C22.125 15.3323 21.7927 15 21.3828 15C20.9729 15 20.6406 15.3323 20.6406 15.7422V23.7454C20.6406 23.7496 20.6412 23.7537 20.6412 23.7578H19.3041C19.3042 23.7537 19.3047 23.7496 19.3047 23.7454V15.7422C19.3047 15.3323 18.9724 15 18.5625 15C18.1526 15 17.8203 15.3323 17.8203 15.7422V23.7454C17.8203 23.7496 17.8209 23.7537 17.8209 23.7578H16.4844V15.7422C16.4844 15.3323 16.1521 15 15.7422 15C15.3323 15 15 15.3323 15 15.7422V24.7969C15 26.6175 16.1047 28.2606 17.7461 28.9709V50.7734C17.7461 52.0012 18.7449 53 19.9727 53C21.2004 53 22.1992 52.0012 22.1992 50.7734V28.9709C23.8406 28.2606 24.9453 26.6175 24.9453 24.7969V15.7422C24.9453 15.3323 24.613 15 24.2031 15ZM21.251 27.7374C20.9335 27.8292 20.7148 28.1199 20.7148 28.4504V50.7734C20.7148 51.1827 20.3819 51.5156 19.9727 51.5156C19.5634 51.5156 19.2305 51.1827 19.2305 50.7734V28.4504C19.2305 28.1199 19.0119 27.8292 18.6943 27.7374C17.5378 27.4032 16.6918 26.4105 16.5179 25.2422H23.4273C23.2535 26.4105 22.4076 27.4032 21.251 27.7374Z" fill="white"></path>
  </g>
  <defs>
    <linearGradient id="paint0_linear_142_761" x1="102" y1="68" x2="102" y2="136" gradientUnits="userSpaceOnUse">
      <stop stop-color="#FF857D"></stop>
      <stop offset="1" stop-color="#FFAE8B"></stop>
    </linearGradient>
    <clipPath id="clip0_142_761">
      <rect width="38" height="38" fill="white" transform="translate(15 15)"></rect>
    </clipPath>
  </defs>
</svg>
