<?xml version="1.0" encoding="UTF-8"?>
<svg xmlns="http://www.w3.org/2000/svg" width="68" height="68" viewBox="0 0 68 68" fill="none">
  <rect x="68" y="68" width="68" height="68" rx="20" transform="rotate(-180 68 68)" fill="url(#paint0_linear_524_258)"></rect>
  <path d="M39.5672 26.7334C39.1808 26.7334 38.8672 27.0463 38.8672 27.4333C38.8672 27.82 39.1808 28.1334 39.5672 28.1334C39.9544 28.1334 40.2672 27.82 40.2672 27.4333C40.2672 27.0463 39.9544 26.7334 39.5672 26.7334Z" fill="white"></path>
  <path d="M27.4334 39.3333C27.0462 39.3333 26.7334 39.6469 26.7334 40.0333C26.7334 40.4204 27.0462 40.7333 27.4334 40.7333C27.8198 40.7333 28.1334 40.4204 28.1334 40.0333C28.1334 39.6469 27.8198 39.3333 27.4334 39.3333Z" fill="white"></path>
  <path d="M50.1506 20.2616C49.9198 20.2072 49.6774 20.2778 49.5107 20.4483L46.6767 23.3428H45.318L43.8223 21.7726V20.3766L46.6158 17.5037C46.7811 17.3338 46.8484 17.0895 46.7936 16.857C46.7392 16.6249 46.5704 16.4376 46.3471 16.3613C45.6454 16.1216 44.911 16.0001 44.1641 16.0001C41.9376 16.0001 39.9148 17.0521 38.6143 18.8864C37.3971 20.6036 37.0219 22.708 37.5595 24.722L32.524 29.8245L24.1347 21.3042V19.6319C24.1347 19.3887 24.0087 19.163 23.8028 19.038L18.9692 16.0988C18.7 15.9351 18.3558 15.9781 18.1342 16.203L16.2008 18.1618C15.9792 18.3867 15.9367 18.7355 16.098 19.0082L18.998 23.9061C19.1214 24.1148 19.3438 24.2422 19.5839 24.2425L21.2337 24.243L29.6237 32.7634L24.6074 37.8464C22.6198 37.302 20.542 37.6827 18.8466 38.9168C17.0374 40.2338 16 42.283 16 44.5391C16 45.2957 16.1199 46.0401 16.3565 46.7509C16.4321 46.9785 16.6187 47.1503 16.8494 47.2044C17.0804 47.2588 17.3226 47.1882 17.4895 47.0177L20.3233 44.1235H21.6895L23.246 45.7008V47.0851L20.3898 49.9566C20.2216 50.1257 20.1519 50.3712 20.2056 50.6052C20.259 50.839 20.4285 51.0281 20.6531 51.1047C21.3546 51.3445 22.0892 51.466 22.8359 51.466C25.0624 51.466 27.0844 50.4144 28.3844 48.5812C29.6023 46.8632 29.978 44.758 29.4408 42.744L33.4696 38.6617L34.3924 39.6775L33.9689 40.1063C33.7019 40.3769 33.7019 40.8156 33.9689 41.0861C34.236 41.3565 34.6686 41.3565 34.9359 41.0861L35.3193 40.6976L43.9783 50.2283C43.9847 50.2353 43.9913 50.2421 43.998 50.2488C45.6002 51.8724 48.1961 51.8729 49.7991 50.2486C51.3976 48.628 51.3976 45.9911 49.7991 44.3706C49.7922 44.3635 49.785 44.3568 49.7778 44.35L40.3575 35.5926L40.7367 35.2084C41.0037 34.9381 41.0037 34.4995 40.7367 34.2289C40.4697 33.9583 40.0371 33.9583 39.7698 34.2289L39.3492 34.6553L38.3449 33.7212L42.3931 29.6191C42.9686 29.775 43.5625 29.854 44.1641 29.854C47.9336 29.854 51 26.7465 51 22.9272C51 22.1703 50.8801 21.4262 50.6435 20.7151C50.5679 20.4875 50.3813 20.3157 50.1506 20.2616ZM22.0011 23.0611C21.8729 22.9309 21.6991 22.8646 21.5175 22.8646L19.9714 22.8641L17.5451 18.7593L18.7235 17.5652L22.7675 20.0243V21.591C22.7675 21.7744 22.8394 21.9503 22.9673 22.0802L31.5573 30.8043L30.5904 31.7838L22.0011 23.0611ZM39.3898 36.5733L48.8421 45.3601C49.8979 46.4414 49.8947 48.1921 48.8322 49.2693C47.7673 50.3484 46.0433 50.3517 44.974 49.2788L36.2868 39.717L39.3898 36.5733ZM38.3814 35.6357L35.3599 38.6968L34.437 37.681L37.3771 34.7016L38.3814 35.6357ZM44.1641 28.4686C43.5662 28.4686 42.9782 28.3714 42.4169 28.1798C42.171 28.0962 41.8991 28.1606 41.7154 28.3465C38.2882 31.8193 30.9036 39.3019 28.1844 42.0576C28.0006 42.2437 27.9368 42.5192 28.0199 42.7687C28.5881 44.4785 28.3163 46.3023 27.2738 47.773C26.2342 49.2393 24.6165 50.0805 22.8359 50.0805C22.6359 50.0805 22.4369 50.0694 22.2399 50.0481L24.4111 47.865C24.5404 47.7351 24.6133 47.5581 24.6133 47.3733V45.4137C24.6133 45.2299 24.5412 45.0538 24.413 44.9239L22.4559 42.9408C22.3277 42.8109 22.1539 42.7378 21.9725 42.7378H20.0387C19.8563 42.7378 19.6816 42.8117 19.5532 42.9427L17.399 45.1428C17.3776 44.9431 17.367 44.7415 17.367 44.5389C17.367 42.7343 18.1969 41.0953 19.6443 40.0419C21.0953 38.9856 22.8954 38.7098 24.5831 39.2859C24.829 39.3701 25.1009 39.3054 25.2846 39.1192C25.3223 39.0813 38.806 25.4179 38.8156 25.4082C38.9994 25.222 39.0629 24.9468 38.9801 24.6974C38.4116 22.9875 38.6829 21.1643 39.7246 19.6947C40.765 18.227 42.383 17.3855 44.1639 17.3855C44.37 17.3855 44.5748 17.3971 44.7778 17.4198L42.6516 19.6065C42.5256 19.7361 42.4551 19.9106 42.4551 20.0925V22.0521C42.4551 22.2317 42.5237 22.4041 42.6468 22.5332L44.5356 24.5163C44.6643 24.6516 44.8419 24.7279 45.0275 24.7279H46.9613C47.1435 24.7279 47.3181 24.6543 47.4465 24.5231L49.6007 22.3232C49.6221 22.5229 49.6328 22.7245 49.6328 22.9272C49.6328 25.9827 47.1795 28.4686 44.1641 28.4686Z" fill="white"></path>
  <path d="M37.2467 28.8073L28.7972 37.6592C28.5337 37.9353 28.5337 38.3832 28.7972 38.6595C29.061 38.9358 29.4885 38.9358 29.7523 38.6595L38.2018 29.8076C38.4656 29.5316 38.4656 29.0837 38.2018 28.8073C37.938 28.531 37.5105 28.531 37.2467 28.8073Z" fill="white"></path>
  <path d="M46.1098 47.0684C46.3747 47.3331 46.8039 47.3331 47.0687 47.0668C47.333 46.801 47.3322 46.3706 47.0672 46.1056L40.9564 39.9983C40.6913 39.7333 40.2618 39.7341 39.9978 39.9999C39.7332 40.2659 39.734 40.6961 39.9991 40.9611L46.1098 47.0684Z" fill="white"></path>
  <defs>
    <linearGradient id="paint0_linear_524_258" x1="103.5" y1="69" x2="103" y2="135.5" gradientUnits="userSpaceOnUse">
      <stop stop-color="#279BFF"></stop>
      <stop offset="1" stop-color="#68B9FF"></stop>
    </linearGradient>
  </defs>
</svg>
