<?xml version="1.0" encoding="UTF-8"?>
<svg xmlns="http://www.w3.org/2000/svg" width="68" height="68" viewBox="0 0 68 68" fill="none">
  <rect x="68" y="68" width="68" height="68" rx="20" transform="rotate(-180 68 68)" fill="url(#paint0_linear_524_257)"></rect>
  <path d="M50.9419 21.6416C50.8344 21.2393 50.5144 20.7112 49.6031 20.4862L48.8297 20.2932L48.9309 19.8885C49.116 19.1573 49.0023 18.3971 48.6101 17.7463C48.218 17.0948 47.5968 16.6362 46.8603 16.4534C45.3371 16.0752 43.7897 16.9995 43.4093 18.5143L43.1654 19.4877C43.1646 19.4877 43.1646 19.4877 43.1646 19.4885L40.6877 29.3517L39.5747 33.7813H38.2155L40.4853 17.3565C40.7081 15.7448 39.57 14.2518 37.9481 14.0276C36.3269 13.8065 34.8257 14.9385 34.6029 16.5526L32.2241 33.7813H32.0712L30.8139 30.5665C30.8131 30.5657 30.8131 30.5649 30.8123 30.5634C30.8123 30.5626 30.8115 30.5618 30.8115 30.561L28.2029 23.8916C28.2013 23.8854 28.1998 23.8791 28.1974 23.8736C28.1951 23.8674 28.1919 23.8619 28.1888 23.8557L25.8727 17.933C25.6758 17.4315 25.1033 17.1799 24.5935 17.3729L19.624 19.2971C19.1181 19.4948 18.8664 20.0658 19.0632 20.5721L21.4162 26.5885C21.5338 26.89 21.875 27.0393 22.1778 26.9221C22.4805 26.8041 22.6303 26.4643 22.5119 26.1635L20.2279 20.3213L24.8444 18.5323L25.5786 20.408L24.0037 21.0174C23.7009 21.1346 23.5503 21.4744 23.668 21.776C23.7589 22.008 23.9809 22.1502 24.217 22.1502C24.2876 22.1502 24.3597 22.1369 24.4295 22.1096L26.0052 21.5002L26.886 23.7533L25.3119 24.3635C25.0091 24.4815 24.8593 24.8205 24.977 25.1221C25.068 25.3541 25.2899 25.4955 25.5252 25.4955C25.5966 25.4955 25.6688 25.483 25.7386 25.4557L27.3135 24.8447L28.1943 27.0978L26.6194 27.7072C26.3166 27.8244 26.166 28.1642 26.2837 28.4658C26.3739 28.6978 26.5966 28.84 26.8319 28.84C26.9033 28.84 26.9754 28.8267 27.0452 28.8002L28.6217 28.19L29.5025 30.4424L27.9276 31.051C27.6249 31.1681 27.475 31.508 27.5927 31.8095C27.6829 32.0416 27.9056 32.1838 28.1409 32.1838C28.2115 32.1838 28.2837 32.1705 28.3535 32.1439L29.9292 31.5338L30.8084 33.7814H25.4916L23.5449 28.8025C23.4273 28.501 23.0861 28.3517 22.7833 28.4697C22.4806 28.5869 22.3308 28.9267 22.4484 29.2283L24.2288 33.7814H23.8782C23.1378 33.7814 22.5355 34.3814 22.5355 35.1181V37.3548C22.5355 38.0923 23.1378 38.6915 23.8782 38.6915H24.2072V44.0769C24.196 44.1221 24.1894 44.1689 24.1894 44.2175C24.1894 44.2661 24.196 44.313 24.2072 44.3582V48.6674C24.196 48.7126 24.1894 48.7595 24.1894 48.8081C24.1894 48.8567 24.196 48.9035 24.2072 48.9487V51.957C24.2072 53.0834 25.1281 54 26.2601 54H44.8727C46.0048 54 46.9256 53.0835 46.9256 51.957V38.6914H47.2548C47.9952 38.6914 48.5976 38.0922 48.5976 37.3547V35.118C48.5976 34.3813 47.9952 33.7813 47.2548 33.7813H45.4415L46.3246 30.2649L48.5458 21.4306L49.3183 21.6228C49.8784 21.7619 49.8823 21.9587 49.7513 22.4869L48.6227 26.9775C48.5434 27.2915 48.7356 27.6095 49.0501 27.6884C49.098 27.7001 49.1466 27.7056 49.1936 27.7056C49.4572 27.7056 49.6972 27.5282 49.7638 27.2618L50.8933 22.7681C50.956 22.515 51.0611 22.0908 50.9419 21.6416ZM41.6861 30.204L44.9254 31.0095L44.2289 33.7813H40.7873L41.6861 30.204ZM37.0281 33.7813H35.8846L37.9881 18.5534L39.1105 18.7073L37.0281 33.7813ZM35.7685 16.712C35.9034 15.7385 36.8101 15.0557 37.7874 15.1885C38.7662 15.3237 39.454 16.2245 39.3199 17.1971L39.2713 17.5448L37.5646 17.3119L37.5544 17.3112L35.7207 17.0596L35.7685 16.712ZM35.5615 18.2205L36.8226 18.3932L34.6971 33.7813H33.4124L35.5615 18.2205ZM44.8728 52.828H26.2601C25.7769 52.828 25.3837 52.4372 25.3837 51.9568V49.3938H45.7492V51.9568C45.7492 52.4372 45.356 52.828 44.8728 52.828ZM45.7492 43.6315H36.7818C36.4568 43.6315 36.1935 43.8938 36.1935 44.2174C36.1935 44.541 36.4568 44.8033 36.7818 44.8033H45.7491V48.222H25.3837V44.8033H34.3088C34.6338 44.8033 34.8971 44.541 34.8971 44.2174C34.8971 43.8938 34.6338 43.6315 34.3088 43.6315H25.3837V38.6914H45.7492V43.6315ZM47.2548 34.9532C47.3434 34.9532 47.4211 35.0306 47.4211 35.118V37.3548C47.4211 37.4438 47.345 37.5196 47.2548 37.5196H23.8783C23.7866 37.5196 23.712 37.4454 23.712 37.3548V35.118C23.712 35.029 23.7881 34.9532 23.8783 34.9532H25.0877C25.0885 34.9532 25.0885 34.954 25.0893 34.954C25.0909 34.954 25.0917 34.9532 25.0924 34.9532H31.6674C31.6682 34.9532 31.6682 34.954 31.669 34.954C31.6705 34.954 31.6713 34.9532 31.6729 34.9532H32.7372L32.738 34.954C32.7388 34.954 32.7396 34.9532 32.7396 34.9532H34.5349H36.7733H36.8666H37.5404C37.5412 34.9532 37.5412 34.954 37.5419 34.954C37.5419 34.954 37.5427 34.9532 37.5435 34.9532H38.0533H40.0322C40.0329 34.9532 40.0337 34.954 40.0345 34.954C40.0353 34.954 40.0353 34.9532 40.0361 34.9532H47.2548ZM45.2595 29.6782L45.2109 29.8728L41.9716 29.0673L44.163 20.3408L47.4023 21.1463L45.2595 29.6782ZM47.7897 19.6033L47.6885 20.0096L44.4493 19.2041L44.5513 18.7979C44.774 17.9104 45.6822 17.369 46.5764 17.5909C47.007 17.6971 47.3717 17.9666 47.6015 18.3494C47.8313 18.7307 47.8979 19.176 47.7897 19.6033Z" fill="white"></path>
  <defs>
    <linearGradient id="paint0_linear_524_257" x1="102" y1="68" x2="102" y2="136" gradientUnits="userSpaceOnUse">
      <stop stop-color="#807DFF"></stop>
      <stop offset="1" stop-color="#B275FF"></stop>
    </linearGradient>
  </defs>
</svg>
