<svg width="42" height="42" viewBox="0 0 42 42" fill="none" xmlns="http://www.w3.org/2000/svg">
<circle cx="21" cy="21" r="21" fill="#EBEBEB"/>
<path d="M30.21 24.89C29.5738 26.3945 28.5788 27.7202 27.3119 28.7513C26.045 29.7824 24.5448 30.4874 22.9424 30.8048C21.3401 31.1221 19.6844 31.0421 18.1202 30.5718C16.5559 30.1014 15.1306 29.2551 13.969 28.1066C12.8074 26.9582 11.9448 25.5427 11.4566 23.9839C10.9685 22.4251 10.8696 20.7705 11.1686 19.1646C11.4676 17.5588 12.1555 16.0506 13.1721 14.772C14.1886 13.4934 15.5029 12.4833 17 11.83" stroke="#F85C28" stroke-width="2" stroke-linecap="round" stroke-linejoin="round"/>
<path d="M31 21C31 19.6868 30.7413 18.3864 30.2388 17.1732C29.7362 15.9599 28.9997 14.8575 28.0711 13.9289C27.1425 13.0003 26.0401 12.2638 24.8268 11.7612C23.6136 11.2587 22.3132 11 21 11V21H31Z" stroke="#B55738" stroke-width="2" stroke-linecap="round" stroke-linejoin="round"/>
</svg>
